<?xml version="1.0" encoding="UTF-8"?>
<!--
  OURO — Logo completo (versión monocromática, pensada para fondo claro).
  Editado en mayo 2026:
    - Fill hardcoded (#081837) reemplazado por currentColor para permitir
      colorear el SVG desde CSS (typical: color: var(--navy)).
    - Clase interna renombrada a nombre semántico.
-->
<svg id="ouro-logo-mono" data-name="OURO logo (monocromático)" xmlns="http://www.w3.org/2000/svg" viewBox="0 0 853 1270.95">
  <defs>
    <style>
      .logo-mono { fill: currentColor; }
    </style>
  </defs>
  <g>
    <path class="logo-mono" d="M481.89,337.44c-5.84-.92-11.65-2.2-17.54-2.88-91.96-10.59-173.3,39.15-210.12,122.47-15.41,34.87-14.33,80.58-3.88,116.78,36.56,126.61,192.87,184.93,303.82,112.6,87.25-56.88,113.39-174.42,55.04-261.99-5.72-8.58-13.55-18.92-21.46-25.34-3.16-2.57-7.56-3.75-10.56-5.78-.95-.65-2.03-.83-1.71-2.37,5.85-.74,10.5,3.64,16.32,3.73-.33,3.33-2.63,5.54,2.2,7.07,3.28,1.04,6.76-.99,8.62.26,57.97,67.39,67.43,163.61,23.49,241.23-80.48,142.15-282.71,140.51-366.62,2.41-81.42-134,10.91-309.29,166.33-317.84,12.57-.69,39.86.45,51.65,4.04,2.9.88,4.49,2.38,4.41,5.61ZM298.15,663.81c-24.89-24.13-43.76-54.59-53.4-88.11l-7.23-32.5c.52,23.39,5.36,45.96,13.55,67.77,41.22,109.74,174.54,164.59,280.85,111.87,38.57-19.12,73.51-52.10,91.83-91.26-6.92,8.10-12.36,17.34-19.35,25.41-79.09,91.26-221.49,89.02-306.26,6.82Z"/>
    <path class="logo-mono" d="M516.43,363.44c-4.71-.4-9.21-1.63-13.50-3.59-3.92-1.79-7.45-4.31-10.64-7.19-.29-1.59.57-1.17,1.69-.95,6.58,1.32,12.58,3.39,19.51,2.85,1.33-.1,2.40.21,3.29-1.15-.02-1.43-9.56-2.49-11.13-2.97-8.76-2.67-14.80-8.28-20.79-14.87-.36-1.77,1.46-1.21,2.43-.94,6.38,1.75,13.59,7.32,20.59,6.15-8.10-6.53-16.70-11.78-22.15-20.93-1.48-2.49-4.13-7.57-4.52-10.34-.29-2.08-.93-8.30,1.80-8.53,3.09-.26,2.82,2.57,4.07,4.14,3.76,4.70,8.99,10.05,13.76,13.72,5.39,4.15,14.67,8.29,18.50,13.44,1.51,2.03,2.37,4.72,4.15,6.99,8.24,10.55,20.34,12.60,32.28,16.74,1.62-1.23-.14-1.30-.57-1.71-6.05-5.75-16.08-14.51-14.28-23.55,4.87,5.49,9.54,11.85,16.74,14.45,1.27.46,3.46,1.63,4.42.03-8.56-5.84-15.64-11.18-19.66-21.17-1.64-4.07-4.11-15.70-1.48-19.30,3.33-4.55,5.72,8.19,6.41,9.91,6.39,15.82,20.76,17.97,31.57,28.23,9.51,9.02,6.93,19.70,19.80,27.36,7.94,4.73,19.73,4.15,11.53,16.44-2.11,3.16-9.13,11.11-12.87,11.65-2.16.31-.55-3.98-1.49-5.96-1.40-2.93-10.56-2.42-13.93-3.16-1.44-.32-3.05-.97-4.47-1.48-5.51-1.97-16.01-9.14-20.40-10.05-3.50-.72-8.40-.60-9.56,3.53-1.64,5.86,10.49,12.88,14.21,16.34s12.65,15.15,17.01,14.87c2.45-.16,5.01-3.34,7.84-2.95,2.04,3.11-3.63,8.10-6.45,8.74-10.57,2.40-15.24-9.43-21.35-15.87-5.96-6.28-17.68-14.14-25.83-16.86-4.71-1.57-10.36-1.26-13.95-5.37,5.07-2,11.74-1.31,16.55-4.24,1.13-.69,2.14-1.49.54-2.45-1.19-.72-9.18,1.20-11.52,1.20-6.05,0-13.56-2.46-18.19-6.39l16.38-1.44c1.61-.81,4.57-.70,5.92-1.51,1.23-.74-.08-1.87-.39-1.87-3.80,0-8.19.32-11.88,0ZM558.76,355.29c-2.56.04,1.68,4.01,2.02,4.65,2.40,4.56,1.70,6.49,7.05,9.29,4.51,2.36,8.14,2.33,12.49-.58,2.09-9.67-10.19-8.81-16.14-10.62-1.37-.42-5.11-2.75-5.41-2.75Z"/>
    <path class="logo-mono" d="M547.25,350.81c-8.26-1.12-17.01-6.66-22.26-13.01-1.05-1.27-2.74-3.17-2.99-4.80.66-.62,15.04,6.75,16.31,7.82,2.80,2.37,5.97,7.36,8.94,9.99Z"/>
    <path class="logo-mono" d="M565.43,359.86c2.30,1.38,12.76,1.47,10.46,5.82-2.92,5.53-15.17-.38-10.46-5.82Z"/>
  </g>
  <g>
    <path class="logo-mono" d="M480.72,878.22c-3.78-1.06-10.87-25.85-15.32-30.72-2.34-2.56-5.04-1.45-7.30-3.82l8.30-1.33c10.29-2.86,10.21-23.66,1.53-27.84-4.12-1.99-11.12-2.65-12.03,3.22.15,18.46-.78,36.97,1.03,55.33.41.99,1.03,1.92,1.91,2.55,1.88,1.34,4.72.24,4.43,2.61-6.12.18-12.07-.85-18.21-.77-2.93.04-6.21,1.98-8.49-.34,5.52-.35,6.80-4.14,7.32-9,1.25-11.53.87-32.66.13-44.51-.20-3.23-.28-8.65-3.06-10.30-1.46-.87-3.85-.55-4.39-1.91,5.80-.15,11.65.16,17.46.02,4.61-.11,9.01-1.18,14.05-.76,18.83,1.57,26.74,19.46,9.98,30.77l-7.37,3.38c12.98,1.70,14.18,18.75,20.89,27.74l5.81,5.69h-16.69Z"/>
    <path class="logo-mono" d="M308.48,821.29c25.00-25.73,71.30-3.24,58.18,34.11-7.14,20.34-30.04,28.52-49.30,19.98-21.30-9.44-24.62-37.90-8.88-54.09ZM331.83,813.77c-27.97,1.99-24.81,62.51,2.74,61.52,28.44-1.01,27.34-63.66-2.74-61.52Z"/>
    <path class="logo-mono" d="M528.42,810.85c25.51-2.53,44.05,17.61,36.86,42.84-10.66,37.42-71.43,31.74-67.85-11.48,1.35-16.27,14.78-29.76,31-31.36ZM530.66,813.77c-27.79,1.95-25.60,62.57,2.74,61.53s26.87-63.60-2.74-61.53Z"/>
    <path class="logo-mono" d="M398.74,811.37c-2.65,2.41-5.92,1.80-6.64,6.36,1.04,14.18-1.53,30.63-.05,44.53.78,7.27,4.40,10.27,11.47,10.80,10.78.80,17.62-2.41,18.86-13.87.86-7.97,1.23-33.95-.08-41.33-.26-1.44-.84-2.98-2.05-3.89-2.32-1.73-5.25-.14-6.67-2.60h20.77c-1.05,1.90-4.21,1.17-5.92,2.62-.90.77-1.28,1.86-1.46,3.00-2.20,14.05,3.31,39.16-1.90,51.58-6.07,14.47-38.23,13.95-44.28-.98-4.54-11.19.77-37.42-1.39-50.60-.74-4.54-3.45-3.08-5.89-5.61h25.22Z"/>
  </g>
</svg>
