<?xml version="1.0" encoding="UTF-8"?>
<!--
  OURO — Logo completo (versión pensada para fondo navy).
  Editado en mayo 2026:
    - Removido <rect> de fondo embebido (#010314). El SVG es ahora transparente.
    - Gradiente metálico de las letras OURO normalizado a la fórmula oficial
      de 4 stops asimétrico (#A8842C → #C6A75E → #E0C780 → #B8943F).
    - Fills hardcoded reemplazados por currentColor en el isotipo y por
      var(--logo-letras-gradient) en el texto, para permitir uso multi-contexto.
    - Clases internas renombradas a nombres semánticos.
-->
<svg id="ouro-logo-navy" data-name="OURO logo (navy bg)" xmlns="http://www.w3.org/2000/svg" viewBox="0 0 853 1270.95">
  <defs>
    <style>
      .logo-isotipo { fill: currentColor; }
      .logo-letra { fill: url(#ouro-gold-gradient); }
    </style>
    <linearGradient id="ouro-gold-gradient" x1="0" y1="0" x2="1" y2="1">
      <stop offset="0%" stop-color="#A8842C"/>
      <stop offset="40%" stop-color="#C6A75E"/>
      <stop offset="60%" stop-color="#E0C780"/>
      <stop offset="100%" stop-color="#B8943F"/>
    </linearGradient>
  </defs>
  <g>
    <path class="logo-isotipo" d="M480.97,222.99c-7.87-1.24-15.68-2.96-23.61-3.87-123.8-14.26-233.32,52.71-282.88,164.88-20.74,46.95-19.29,108.49-5.22,157.22,49.22,170.45,259.65,248.97,409.03,151.59,117.46-76.57,152.66-234.82,74.1-352.72-7.7-11.55-18.25-25.48-28.89-34.11-4.26-3.46-10.18-5.04-14.22-7.78-1.28-.87-2.74-1.12-2.3-3.19,7.87-.99,14.13,4.9,21.97,5.03-.44,4.49-3.54,7.46,2.96,9.52,4.42,1.4,9.1-1.33,11.6.36,78.05,90.72,90.79,220.27,31.63,324.77-108.35,191.38-380.61,189.17-493.58,3.24-109.62-180.41,14.69-416.4,223.92-427.9,16.92-.93,53.66.6,69.54,5.44,3.91,1.19,6.04,3.21,5.94,7.55ZM233.6,662.38c-33.5-32.49-58.91-73.49-71.89-118.62l-9.73-43.76c.7,31.48,7.21,61.87,18.24,91.24,55.5,147.75,234.98,221.58,378.11,150.61,51.93-25.75,98.96-70.15,123.63-122.86-9.31,10.91-16.63,23.34-26.05,34.2-106.47,122.87-298.19,119.84-412.32,9.18Z"/>
    <path class="logo-isotipo" d="M527.48,258c-6.34-.54-12.41-2.2-18.17-4.83-5.28-2.41-10.02-5.81-14.32-9.69-.38-2.14.77-1.58,2.27-1.28,8.86,1.77,16.94,4.56,26.27,3.83,1.78-.14,3.23.29,4.43-1.54-.03-1.93-12.86-3.35-14.98-4-11.79-3.6-19.92-11.15-27.99-20.01-.49-2.38,1.97-1.62,3.27-1.27,8.59,2.36,18.3,9.85,27.72,8.28-10.9-8.79-22.48-15.86-29.82-28.18-2-3.35-5.56-10.2-6.09-13.91-.39-2.8-1.25-11.18,2.43-11.48,4.15-.34,3.79,3.46,5.48,5.57,5.06,6.32,12.11,13.53,18.53,18.47,7.26,5.58,19.75,11.16,24.91,18.09,2.03,2.73,3.2,6.35,5.59,9.41,11.09,14.2,27.38,16.96,43.46,22.54,2.18-1.66-.19-1.75-.76-2.3-8.15-7.75-21.65-19.54-19.23-31.71,6.55,7.4,12.85,15.95,22.54,19.46,1.72.62,4.66,2.19,5.95.04-11.52-7.86-21.06-15.06-26.47-28.51-2.21-5.49-5.53-21.14-1.99-25.98,4.49-6.13,7.7,11.02,8.63,13.34,8.6,21.3,27.95,24.2,42.5,38,12.8,12.14,9.33,26.52,26.66,36.84,10.69,6.36,26.57,5.59,15.52,22.13-2.84,4.26-12.29,14.96-17.32,15.69-2.91.42-.74-5.36-2-8.02-1.88-3.95-14.22-3.26-18.75-4.25-1.94-.42-4.1-1.3-6.01-1.99-7.42-2.65-21.55-12.31-27.46-13.53-4.71-.98-11.32-.81-12.88,4.75-2.21,7.89,14.12,17.35,19.13,21.99s17.03,20.39,22.9,20.01c3.29-.21,6.75-4.5,10.55-3.97,2.75,4.19-4.89,10.91-8.68,11.77-14.23,3.24-20.51-12.7-28.74-21.37s-23.8-19.04-34.77-22.7c-6.34-2.11-13.95-1.7-18.78-7.22,6.83-2.69,15.81-1.76,22.28-5.71,1.52-.93,2.88-2,.73-3.3-1.61-.97-12.35,1.61-15.51,1.61-8.15,0-18.26-3.31-24.5-8.6l22.05-1.94c2.16-1.09,6.16-.94,7.97-2.03,1.65-1-.11-2.52-.52-2.52-5.12,0-11.02.43-16,0ZM584.47,247.02c-3.45.05,2.26,5.4,2.72,6.27,3.23,6.14,2.3,8.74,9.49,12.51,6.07,3.18,10.96,3.14,16.81-.78,2.81-13.02-13.72-11.86-21.74-14.3-1.84-.56-6.88-3.7-7.29-3.7Z"/>
    <path class="logo-isotipo" d="M568.98,240.99c-11.11-1.51-22.9-8.97-29.97-17.52-1.42-1.71-3.69-4.27-4.02-6.47.89-.84,20.25,9.08,21.96,10.53,3.77,3.19,8.04,9.91,12.04,13.45Z"/>
    <path class="logo-isotipo" d="M593.45,253.17c3.1,1.86,17.17,1.98,14.08,7.83-3.94,7.45-20.42-.52-14.08-7.83Z"/>
  </g>
  <g>
    <path class="logo-letra" d="M485.93,997c-5.09-1.42-14.63-34.8-20.62-41.36-3.14-3.44-6.79-1.95-9.83-5.14l11.18-1.79c13.85-3.86,13.75-31.85,2.06-37.49-5.55-2.68-14.98-3.56-16.2,4.34.21,24.85-1.06,49.77,1.39,74.49.55,1.33,1.39,2.59,2.57,3.43,2.54,1.8,6.35.33,5.97,3.52-8.24.25-16.25-1.15-24.51-1.04-3.94.05-8.36,2.66-11.43-.46,7.43-.47,9.15-5.58,9.86-12.12,1.68-15.53,1.18-43.97.17-59.92-.27-4.34-.38-11.65-4.12-13.87-1.97-1.17-5.18-.75-5.91-2.57,7.82-.2,15.69.22,23.51.03,6.21-.15,12.13-1.59,18.92-1.03,25.35,2.11,36,26.2,13.44,41.42l-9.92,4.55c17.47,2.29,19.09,25.25,28.12,37.35l7.83,7.66h-22.47Z"/>
    <path class="logo-letra" d="M254.05,920.35c33.65-34.63,95.99-4.36,78.33,45.92-9.61,27.38-40.45,38.4-66.38,26.9-28.67-12.71-33.15-51.02-11.96-72.83ZM285.48,910.23c-37.66,2.67-33.41,84.15,3.69,82.83,38.29-1.36,36.81-85.71-3.69-82.83Z"/>
    <path class="logo-letra" d="M550.14,906.29c34.34-3.4,59.3,23.71,49.62,57.68-14.35,50.37-96.17,42.74-91.35-15.46,1.82-21.91,19.9-40.06,41.73-42.22ZM553.16,910.23c-37.42,2.62-34.47,84.23,3.69,82.84,37.7-1.38,36.17-85.63-3.69-82.84Z"/>
    <path class="logo-letra" d="M375.55,907c-3.57,3.25-7.96,2.43-8.93,8.56,1.39,19.09-2.07,41.24-.06,59.95,1.05,9.79,5.92,13.83,15.45,14.54,14.52,1.07,23.73-3.25,25.39-18.67,1.16-10.73,1.66-45.7-.11-55.64-.35-1.94-1.13-4.01-2.77-5.23-3.12-2.33-7.07-.18-8.98-3.51h27.97c-1.41,2.56-5.67,1.57-7.96,3.53-1.21,1.03-1.72,2.51-1.96,4.04-2.96,18.92,4.45,52.72-2.56,69.44-8.17,19.48-51.47,18.77-59.62-1.31-6.11-15.06,1.04-50.37-1.87-68.13-1-6.11-4.64-4.15-7.93-7.56h33.96Z"/>
  </g>
</svg>
